<svg width="240" height="52" viewBox="0 0 240 52" fill="none" xmlns="http://www.w3.org/2000/svg">
<g clip-path="url(#clip0_1_318)">
<path d="M10.334 17.9453L9.88281 17.8809H9.79688C9.4388 17.8809 9.06641 17.7376 8.67969 17.4512C8.30729 17.1647 8.12109 16.6562 8.12109 15.9258C8.12109 15.1953 8.51497 14.3646 9.30273 13.4336C10.1048 12.5026 11.1862 11.6504 12.5469 10.877C13.9076 10.0892 15.5977 9.44466 17.6172 8.94336C19.651 8.44206 21.7923 8.19141 24.041 8.19141C28.6387 8.19141 32.2266 9.10091 34.8047 10.9199C37.3971 12.7246 38.6934 15.0736 38.6934 17.9668C38.6934 19.7715 38.2923 21.5762 37.4902 23.3809C36.6882 25.1855 35.6139 26.8542 34.2676 28.3867C32.9212 29.9049 31.3385 31.3301 29.5195 32.6621C27.7005 33.9798 25.7956 35.1042 23.8047 36.0352C19.5078 38.0117 15.3971 39 11.4727 39C9.53906 39 8.32161 38.8424 7.82031 38.5273C7.63411 38.4271 7.44792 38.2767 7.26172 38.0762C7.08984 37.8613 6.95378 37.7181 6.85352 37.6465C6.58138 37.4746 6.44531 37.1094 6.44531 36.5508C6.44531 35.9779 6.5026 35.4622 6.61719 35.0039C7.04688 33.4714 8.97331 30.1484 12.3965 25.0352C15.834 19.9076 18.7057 15.7754 21.0117 12.6387C21.1693 12.4238 21.9785 12.2663 23.4395 12.166C24.041 12.166 24.4564 12.209 24.6855 12.2949C24.9147 12.3809 25.0293 12.5384 25.0293 12.7676C25.0293 12.9824 24.6569 13.6126 23.9121 14.6582C23.1673 15.6895 20.7754 19.3203 16.7363 25.5508C12.6973 31.7669 10.6777 34.9609 10.6777 35.1328C10.6777 35.3047 11.3079 35.3906 12.5684 35.3906C13.8431 35.3906 15.4043 35.1257 17.252 34.5957C19.1139 34.0514 20.8613 33.3424 22.4941 32.4688C24.127 31.5951 25.6882 30.5853 27.1777 29.4395C28.6673 28.2793 29.9421 27.0977 31.002 25.8945C33.3223 23.2591 34.4824 20.9173 34.4824 18.8691C34.4824 16.821 33.5443 15.0807 31.668 13.6484C29.806 12.2161 27.2493 11.5 23.998 11.5C21.8066 11.5 19.737 11.8652 17.7891 12.5957C15.8411 13.3262 14.502 13.9779 13.7715 14.5508C13.041 15.1237 12.6758 15.5104 12.6758 15.7109C12.6758 15.8255 12.7617 15.8828 12.9336 15.8828L13.8574 15.7109C13.9863 15.7109 14.0508 15.7396 14.0508 15.7969C14.0508 15.8542 13.929 15.9544 13.6855 16.0977C13.4421 16.2409 13.2415 16.3984 13.084 16.5703C12.9408 16.7279 12.5684 16.9928 11.9668 17.3652C11.3652 17.7233 10.821 17.9167 10.334 17.9453ZM52.3695 6.75195C53.057 6.75195 53.6585 6.95964 54.1741 7.375C54.7041 7.77604 54.9691 8.3776 54.9691 9.17969C54.9691 9.98177 54.5251 11.2422 53.637 12.9609C52.749 14.6654 51.682 16.4128 50.4359 18.2031C49.1898 19.9792 47.779 21.8698 46.2034 23.875C43.7113 27.0547 41.3193 29.9121 39.0277 32.4473C39.0133 32.6191 38.9489 32.9414 38.8343 33.4141C38.734 33.8724 38.6839 34.3379 38.6839 34.8105C38.6839 35.2832 38.8988 35.7129 39.3284 36.0996C39.7724 36.472 40.3167 36.6582 40.9613 36.6582C41.6058 36.6582 42.2933 36.429 43.0238 35.9707C43.7685 35.5124 44.4131 35.0039 44.9573 34.4453C46.3896 32.9701 47.2777 32.2324 47.6214 32.2324C47.9652 32.2324 48.137 32.7552 48.137 33.8008V34.2305C48.137 34.7891 48.0368 35.1973 47.8363 35.4551C46.6331 36.9303 45.2796 38.0332 43.7757 38.7637C42.2718 39.4798 40.8467 39.8379 39.5003 39.8379C38.154 39.8379 37.1299 39.4297 36.428 38.6133C35.7262 37.7826 35.3753 36.651 35.3753 35.2188C35.3753 32.4258 36.1201 29.1458 37.6097 25.3789C39.1136 21.5977 40.8037 18.3822 42.68 15.7324C46.9053 9.74544 50.1351 6.75195 52.3695 6.75195ZM51.4027 10.3184C51.4027 10.1035 51.331 9.99609 51.1878 9.99609C50.6865 9.99609 49.3688 11.4284 47.2347 14.293C45.1006 17.1576 43.5537 19.4421 42.5941 21.1465C41.6488 22.8509 40.7536 24.9922 39.9085 27.5703C41.5986 25.5651 43.9333 22.4427 46.9124 18.2031C49.9059 13.9492 51.4027 11.321 51.4027 10.3184ZM56.5495 16.1406L56.9362 16.0977C57.151 16.0977 57.3229 16.2839 57.4518 16.6562C57.5807 17.0286 57.6452 17.2793 57.6452 17.4082C57.6452 17.5371 57.5019 17.7806 57.2155 18.1387L51.0924 27.4629C53.2409 25.3145 55.4251 23.7461 57.6452 22.7578C58.5045 22.3854 59.278 22.1992 59.9655 22.1992C60.6673 22.1992 61.2259 22.4284 61.6413 22.8867C62.0709 23.3307 62.2858 23.8893 62.2858 24.5625C62.2858 25.2357 62.0996 26.0664 61.7272 27.0547C61.3548 28.043 60.8463 29.0957 60.2018 30.2129C59.5716 31.3301 58.7982 32.4544 57.8815 33.5859C56.9791 34.7174 56.0267 35.7415 55.0241 36.6582C54.0358 37.5749 52.9544 38.3197 51.7799 38.8926C50.6054 39.4655 49.5742 39.752 48.6862 39.752C46.8958 39.752 46.0006 38.9284 46.0006 37.2812C44.3248 39.8451 42.3913 42.8815 40.1998 46.3906C38.0084 49.8997 36.834 51.7546 36.6764 51.9551C36.5189 52.1556 36.3899 52.2559 36.2897 52.2559C36.1751 52.2559 36.0104 52.1914 35.7955 52.0625C35.5664 51.9336 35.3301 51.7188 35.0866 51.418C34.8431 51.1172 34.7213 50.6803 34.7213 50.1074C34.707 49.5345 34.8717 48.9544 35.2155 48.3672C37.1491 45.1445 40.873 39.0859 46.3873 30.1914C51.916 21.2826 54.9095 16.6777 55.3678 16.377C55.6256 16.2051 55.8834 16.1191 56.1413 16.1191L56.5495 16.1406ZM58.4401 26.0234C58.4401 25.7227 58.2968 25.5723 58.0104 25.5723C57.237 25.5723 55.597 26.7611 53.0905 29.1387C50.5983 31.5163 48.6146 33.6862 47.1393 35.6484C47.5117 36.1068 48.0631 36.3359 48.7936 36.3359C49.5241 36.3359 50.4694 35.9421 51.6295 35.1543C52.7897 34.3665 53.8639 33.4355 54.8522 32.3613C55.8405 31.2728 56.6855 30.1341 57.3873 28.9453C58.0892 27.7565 58.4401 26.7826 58.4401 26.0234Z" fill="white"/>
<path d="M91.84 24L94.984 8.256H97.912C100.104 8.256 101.76 8.8 102.88 9.888C104.016 10.96 104.584 12.464 104.584 14.4C104.584 16.304 104.24 17.976 103.552 19.416C102.88 20.856 101.904 21.984 100.624 22.8C99.36 23.6 97.84 24 96.064 24H91.84ZM94 22.464H96.064C97.424 22.464 98.6 22.128 99.592 21.456C100.584 20.784 101.344 19.848 101.872 18.648C102.416 17.448 102.688 16.072 102.688 14.52C102.688 13.032 102.272 11.872 101.44 11.04C100.624 10.192 99.424 9.768 97.84 9.768H96.544L94 22.464ZM105.227 24L107.555 12.336H109.403L107.051 24H105.227ZM109.091 9.912C108.787 9.912 108.515 9.824 108.275 9.648C108.035 9.456 107.915 9.184 107.915 8.832C107.915 8.432 108.051 8.104 108.323 7.848C108.611 7.576 108.939 7.44 109.307 7.44C109.627 7.44 109.899 7.536 110.123 7.728C110.363 7.92 110.483 8.192 110.483 8.544C110.483 8.944 110.339 9.272 110.051 9.528C109.779 9.784 109.459 9.912 109.091 9.912ZM113.562 29.28C112.778 29.28 112.042 29.128 111.354 28.824C110.666 28.52 110.042 28.136 109.482 27.672L110.346 26.4C110.794 26.768 111.29 27.088 111.834 27.36C112.394 27.632 112.994 27.768 113.634 27.768C114.626 27.768 115.418 27.464 116.01 26.856C116.602 26.248 117.01 25.432 117.234 24.408L117.834 21.912C117.226 22.52 116.586 23 115.914 23.352C115.242 23.704 114.53 23.88 113.778 23.88C112.802 23.88 111.994 23.536 111.354 22.848C110.714 22.16 110.394 21.136 110.394 19.776C110.394 18.704 110.562 17.704 110.898 16.776C111.25 15.848 111.714 15.032 112.29 14.328C112.882 13.608 113.546 13.048 114.282 12.648C115.018 12.248 115.778 12.048 116.562 12.048C117.17 12.048 117.722 12.208 118.218 12.528C118.714 12.848 119.098 13.272 119.37 13.8H119.442L119.898 12.336H121.41L118.962 24.552C118.658 26.072 118.042 27.24 117.114 28.056C116.202 28.872 115.018 29.28 113.562 29.28ZM114.378 22.344C114.938 22.344 115.538 22.176 116.178 21.84C116.834 21.488 117.434 20.976 117.978 20.304L119.01 15.312C118.658 14.704 118.282 14.264 117.882 13.992C117.498 13.72 117.082 13.584 116.634 13.584C116.074 13.584 115.53 13.752 115.002 14.088C114.49 14.408 114.026 14.848 113.61 15.408C113.21 15.968 112.89 16.6 112.65 17.304C112.41 18.008 112.29 18.744 112.29 19.512C112.29 20.456 112.474 21.168 112.842 21.648C113.226 22.112 113.738 22.344 114.378 22.344ZM122.232 24L124.56 12.336H126.408L124.056 24H122.232ZM126.096 9.912C125.792 9.912 125.52 9.824 125.28 9.648C125.04 9.456 124.92 9.184 124.92 8.832C124.92 8.432 125.056 8.104 125.328 7.848C125.616 7.576 125.944 7.44 126.312 7.44C126.632 7.44 126.904 7.536 127.128 7.728C127.368 7.92 127.488 8.192 127.488 8.544C127.488 8.944 127.344 9.272 127.056 9.528C126.784 9.784 126.464 9.912 126.096 9.912ZM130.904 24.288C129.88 24.288 129.16 24.04 128.744 23.544C128.328 23.032 128.12 22.416 128.12 21.696C128.12 21.456 128.136 21.232 128.168 21.024C128.2 20.816 128.224 20.608 128.24 20.4L129.608 13.824H127.904L128.168 12.456L129.992 12.336L130.856 9.12H132.416L131.768 12.336H134.72L134.432 13.824H131.432L130.064 20.496C130.016 20.784 129.992 21.072 129.992 21.36C129.992 21.84 130.104 22.2 130.328 22.44C130.552 22.68 130.936 22.8 131.48 22.8C131.704 22.8 131.92 22.76 132.128 22.68C132.336 22.6 132.528 22.52 132.704 22.44L133.112 23.76C132.856 23.872 132.536 23.984 132.152 24.096C131.784 24.224 131.368 24.288 130.904 24.288ZM137.587 24.288C136.563 24.288 135.747 23.928 135.139 23.208C134.531 22.472 134.227 21.424 134.227 20.064C134.227 18.944 134.403 17.904 134.755 16.944C135.107 15.968 135.579 15.112 136.171 14.376C136.763 13.64 137.435 13.072 138.187 12.672C138.939 12.256 139.723 12.048 140.539 12.048C141.163 12.048 141.715 12.208 142.195 12.528C142.691 12.848 143.075 13.272 143.347 13.8H143.443L143.899 12.336H145.387L143.059 24H141.547L141.739 22.272H141.643C141.083 22.864 140.451 23.352 139.747 23.736C139.043 24.104 138.323 24.288 137.587 24.288ZM138.259 22.752C138.867 22.752 139.483 22.568 140.107 22.2C140.747 21.832 141.355 21.272 141.931 20.52L142.987 15.312C142.651 14.704 142.283 14.264 141.883 13.992C141.483 13.72 141.059 13.584 140.611 13.584C140.035 13.584 139.475 13.752 138.931 14.088C138.403 14.424 137.923 14.888 137.491 15.48C137.075 16.056 136.739 16.72 136.483 17.472C136.243 18.208 136.123 18.976 136.123 19.776C136.123 20.784 136.315 21.536 136.699 22.032C137.099 22.512 137.619 22.752 138.259 22.752ZM148.077 24.288C147.037 24.288 146.517 23.784 146.517 22.776C146.517 22.504 146.565 22.168 146.661 21.768L149.613 6.912H151.461L148.461 21.864C148.445 21.976 148.429 22.072 148.413 22.152C148.413 22.216 148.413 22.272 148.413 22.32C148.413 22.608 148.549 22.752 148.821 22.752C148.869 22.752 148.917 22.752 148.965 22.752C149.013 22.736 149.093 22.712 149.205 22.68L149.229 24.096C149.069 24.16 148.901 24.208 148.725 24.24C148.549 24.272 148.333 24.288 148.077 24.288ZM157.731 24.288C157.043 24.288 156.539 24.12 156.219 23.784C155.899 23.432 155.739 22.96 155.739 22.368C155.739 22 155.795 21.584 155.907 21.12L158.715 7.056H161.283L158.451 21.24C158.435 21.352 158.419 21.448 158.403 21.528C158.403 21.592 158.403 21.648 158.403 21.696C158.403 22.032 158.539 22.2 158.811 22.2C158.891 22.2 158.955 22.2 159.003 22.2C159.051 22.184 159.131 22.16 159.243 22.128L159.195 24.048C159.019 24.112 158.811 24.168 158.571 24.216C158.331 24.264 158.051 24.288 157.731 24.288ZM160.868 24L163.244 12.216H165.812L163.46 24H160.868ZM165.116 10.128C164.732 10.128 164.388 10.016 164.084 9.792C163.78 9.552 163.628 9.216 163.628 8.784C163.628 8.32 163.796 7.928 164.132 7.608C164.484 7.272 164.892 7.104 165.356 7.104C165.74 7.104 166.084 7.224 166.388 7.464C166.692 7.688 166.844 8.016 166.844 8.448C166.844 8.928 166.676 9.328 166.34 9.648C166.004 9.968 165.596 10.128 165.116 10.128ZM170.3 24.288C169.196 24.288 168.404 24.016 167.924 23.472C167.46 22.912 167.228 22.224 167.228 21.408C167.228 21.168 167.244 20.936 167.276 20.712C167.308 20.488 167.34 20.256 167.372 20.016L168.572 14.256H166.916L167.3 12.336L169.1 12.216L170.036 9.048H172.196L171.572 12.216H174.404L173.996 14.256H171.116L169.916 20.112C169.868 20.4 169.844 20.68 169.844 20.952C169.844 21.384 169.948 21.712 170.156 21.936C170.364 22.144 170.716 22.248 171.212 22.248C171.42 22.248 171.612 22.216 171.788 22.152C171.98 22.088 172.156 22.016 172.316 21.936L172.796 23.76C172.508 23.872 172.156 23.984 171.74 24.096C171.324 24.224 170.844 24.288 170.3 24.288ZM173.749 24L176.125 12.216H178.693L176.341 24H173.749ZM177.997 10.128C177.613 10.128 177.269 10.016 176.965 9.792C176.661 9.552 176.509 9.216 176.509 8.784C176.509 8.32 176.677 7.928 177.013 7.608C177.365 7.272 177.773 7.104 178.237 7.104C178.621 7.104 178.965 7.224 179.269 7.464C179.573 7.688 179.725 8.016 179.725 8.448C179.725 8.928 179.557 9.328 179.221 9.648C178.885 9.968 178.477 10.128 177.997 10.128ZM182.7 29.064C181.964 29.064 181.228 28.912 180.492 28.608C179.772 28.32 179.1 27.928 178.476 27.432L179.628 25.68C180.076 26.048 180.564 26.36 181.092 26.616C181.62 26.872 182.188 27 182.796 27C183.644 27 184.34 26.752 184.884 26.256C185.444 25.76 185.828 25.072 186.036 24.192L186.636 21.912C186.076 22.488 185.468 22.944 184.812 23.28C184.172 23.6 183.5 23.76 182.796 23.76C181.804 23.76 180.98 23.416 180.324 22.728C179.684 22.024 179.364 20.984 179.364 19.608C179.364 18.536 179.532 17.536 179.868 16.608C180.22 15.68 180.684 14.864 181.26 14.16C181.852 13.456 182.516 12.912 183.252 12.528C183.988 12.128 184.756 11.928 185.556 11.928C186.132 11.928 186.652 12.08 187.116 12.384C187.596 12.672 187.964 13.072 188.22 13.584H188.292L188.796 12.216H190.884L188.484 24.168C188.164 25.8 187.508 27.024 186.516 27.84C185.524 28.656 184.252 29.064 182.7 29.064ZM183.732 21.624C184.196 21.624 184.708 21.488 185.268 21.216C185.828 20.928 186.332 20.472 186.78 19.848L187.668 15.48C187.396 14.968 187.092 14.6 186.756 14.376C186.42 14.152 186.068 14.04 185.7 14.04C185.06 14.04 184.46 14.28 183.9 14.76C183.34 15.24 182.884 15.88 182.532 16.68C182.196 17.464 182.028 18.328 182.028 19.272C182.028 20.056 182.18 20.648 182.484 21.048C182.804 21.432 183.22 21.624 183.732 21.624ZM194.918 24.288C193.894 24.288 193.078 23.92 192.47 23.184C191.862 22.432 191.558 21.368 191.558 19.992C191.558 18.856 191.734 17.8 192.086 16.824C192.438 15.848 192.91 15 193.502 14.28C194.094 13.544 194.766 12.968 195.518 12.552C196.286 12.136 197.078 11.928 197.894 11.928C198.47 11.928 198.998 12.08 199.478 12.384C199.974 12.672 200.35 13.072 200.606 13.584H200.654L201.158 12.216H203.222L200.87 24H198.758L198.878 22.368H198.806C198.262 22.944 197.646 23.408 196.958 23.76C196.27 24.112 195.59 24.288 194.918 24.288ZM195.974 22.176C196.486 22.176 197.006 22.024 197.534 21.72C198.078 21.4 198.59 20.888 199.07 20.184L200.03 15.48C199.774 14.968 199.47 14.6 199.118 14.376C198.766 14.152 198.406 14.04 198.038 14.04C197.382 14.04 196.758 14.296 196.166 14.808C195.59 15.32 195.118 16 194.75 16.848C194.398 17.696 194.222 18.624 194.222 19.632C194.222 20.496 194.374 21.136 194.678 21.552C194.998 21.968 195.43 22.176 195.974 22.176ZM207.709 24.288C206.605 24.288 205.813 24.016 205.333 23.472C204.869 22.912 204.637 22.224 204.637 21.408C204.637 21.168 204.653 20.936 204.685 20.712C204.717 20.488 204.749 20.256 204.781 20.016L205.981 14.256H204.325L204.709 12.336L206.509 12.216L207.445 9.048H209.605L208.981 12.216H211.813L211.405 14.256H208.525L207.325 20.112C207.277 20.4 207.253 20.68 207.253 20.952C207.253 21.384 207.357 21.712 207.565 21.936C207.773 22.144 208.125 22.248 208.621 22.248C208.829 22.248 209.021 22.216 209.197 22.152C209.389 22.088 209.565 22.016 209.725 21.936L210.205 23.76C209.917 23.872 209.565 23.984 209.149 24.096C208.733 24.224 208.253 24.288 207.709 24.288ZM211.158 24L213.534 12.216H216.102L213.75 24H211.158ZM215.406 10.128C215.022 10.128 214.678 10.016 214.374 9.792C214.07 9.552 213.918 9.216 213.918 8.784C213.918 8.32 214.086 7.928 214.422 7.608C214.774 7.272 215.182 7.104 215.646 7.104C216.03 7.104 216.374 7.224 216.678 7.464C216.982 7.688 217.134 8.016 217.134 8.448C217.134 8.928 216.966 9.328 216.63 9.648C216.294 9.968 215.886 10.128 215.406 10.128ZM221.141 24.288C219.829 24.288 218.765 23.856 217.949 22.992C217.149 22.112 216.749 20.944 216.749 19.488C216.749 18.352 216.933 17.328 217.301 16.416C217.669 15.488 218.165 14.688 218.789 14.016C219.413 13.344 220.109 12.832 220.877 12.48C221.645 12.112 222.429 11.928 223.229 11.928C224.557 11.928 225.621 12.36 226.421 13.224C227.237 14.088 227.645 15.256 227.645 16.728C227.645 17.848 227.461 18.872 227.093 19.8C226.725 20.728 226.229 21.528 225.605 22.2C224.981 22.872 224.285 23.392 223.517 23.76C222.749 24.112 221.957 24.288 221.141 24.288ZM221.429 22.2C222.053 22.2 222.637 21.96 223.181 21.48C223.741 21 224.189 20.352 224.525 19.536C224.861 18.72 225.029 17.808 225.029 16.8C225.029 15.904 224.853 15.216 224.501 14.736C224.149 14.256 223.637 14.016 222.965 14.016C222.341 14.016 221.749 14.256 221.189 14.736C220.645 15.216 220.197 15.864 219.845 16.68C219.509 17.48 219.341 18.384 219.341 19.392C219.341 20.272 219.517 20.96 219.869 21.456C220.221 21.952 220.741 22.2 221.429 22.2ZM228.327 24L230.703 12.216H232.791L232.695 13.872H232.791C233.399 13.344 234.031 12.888 234.687 12.504C235.359 12.12 236.063 11.928 236.799 11.928C237.791 11.928 238.503 12.192 238.935 12.72C239.367 13.232 239.583 13.96 239.583 14.904C239.583 15.176 239.567 15.44 239.535 15.696C239.519 15.952 239.471 16.24 239.391 16.56L237.903 24H235.335L236.775 16.896C236.823 16.624 236.863 16.392 236.895 16.2C236.943 16.008 236.967 15.824 236.967 15.648C236.967 14.64 236.471 14.136 235.479 14.136C235.079 14.136 234.639 14.28 234.159 14.568C233.679 14.856 233.127 15.32 232.503 15.96L230.919 24H228.327ZM93.16 49V33.256H97.648C98.832 33.256 99.864 33.4 100.744 33.688C101.624 33.976 102.312 34.464 102.808 35.152C103.304 35.824 103.552 36.736 103.552 37.888C103.552 39.536 103.016 40.76 101.944 41.56C100.872 42.36 99.472 42.76 97.744 42.76H95.152V49H93.16ZM95.152 41.128H97.504C98.88 41.128 99.896 40.872 100.552 40.36C101.224 39.832 101.56 39.008 101.56 37.888C101.56 36.752 101.208 35.968 100.504 35.536C99.816 35.088 98.784 34.864 97.408 34.864H95.152V41.128ZM107.498 49.288C106.522 49.288 105.706 49 105.05 48.424C104.41 47.832 104.09 47.016 104.09 45.976C104.09 44.696 104.658 43.72 105.794 43.048C106.946 42.36 108.763 41.88 111.243 41.608C111.243 41.112 111.171 40.64 111.027 40.192C110.898 39.744 110.658 39.384 110.307 39.112C109.971 38.824 109.483 38.68 108.842 38.68C108.17 38.68 107.538 38.808 106.946 39.064C106.354 39.32 105.826 39.608 105.362 39.928L104.594 38.56C105.138 38.208 105.802 37.872 106.586 37.552C107.387 37.216 108.25 37.048 109.178 37.048C110.602 37.048 111.635 37.488 112.274 38.368C112.915 39.232 113.235 40.392 113.235 41.848V49H111.602L111.434 47.608H111.363C110.819 48.056 110.218 48.448 109.562 48.784C108.922 49.12 108.234 49.288 107.498 49.288ZM108.074 47.704C108.635 47.704 109.163 47.568 109.658 47.296C110.155 47.024 110.683 46.64 111.243 46.144V42.904C109.307 43.144 107.947 43.504 107.162 43.984C106.394 44.464 106.01 45.08 106.01 45.832C106.01 46.488 106.21 46.968 106.61 47.272C107.01 47.56 107.498 47.704 108.074 47.704ZM116.184 49V37.336H117.816L117.984 39.448H118.056C118.456 38.712 118.944 38.128 119.52 37.696C120.096 37.264 120.712 37.048 121.368 37.048C121.832 37.048 122.248 37.128 122.616 37.288L122.232 39.016C122.04 38.952 121.864 38.904 121.704 38.872C121.544 38.84 121.344 38.824 121.104 38.824C120.608 38.824 120.088 39.024 119.544 39.424C119.016 39.824 118.552 40.52 118.152 41.512V49H116.184ZM127.457 49.288C126.209 49.288 125.337 48.928 124.841 48.208C124.361 47.488 124.121 46.552 124.121 45.4V38.944H122.393V37.456L124.217 37.336L124.457 34.072H126.113V37.336H129.257V38.944H126.113V45.424C126.113 46.144 126.241 46.704 126.497 47.104C126.769 47.488 127.241 47.68 127.913 47.68C128.121 47.68 128.345 47.648 128.585 47.584C128.825 47.504 129.041 47.432 129.233 47.368L129.617 48.856C129.297 48.968 128.945 49.064 128.561 49.144C128.193 49.24 127.825 49.288 127.457 49.288ZM131.174 49V37.336H132.806L132.974 39.016H133.046C133.606 38.456 134.198 37.992 134.822 37.624C135.446 37.24 136.158 37.048 136.958 37.048C138.19 37.048 139.086 37.44 139.646 38.224C140.222 38.992 140.51 40.12 140.51 41.608V49H138.542V41.872C138.542 40.784 138.366 39.992 138.014 39.496C137.662 39 137.102 38.752 136.334 38.752C135.742 38.752 135.206 38.904 134.726 39.208C134.262 39.512 133.734 39.96 133.142 40.552V49H131.174ZM148.307 49.288C147.267 49.288 146.323 49.048 145.475 48.568C144.627 48.072 143.955 47.368 143.459 46.456C142.963 45.544 142.715 44.456 142.715 43.192C142.715 41.912 142.963 40.816 143.459 39.904C143.971 38.992 144.627 38.288 145.427 37.792C146.227 37.296 147.067 37.048 147.947 37.048C149.435 37.048 150.579 37.544 151.379 38.536C152.195 39.528 152.603 40.856 152.603 42.52C152.603 42.728 152.595 42.936 152.579 43.144C152.579 43.336 152.563 43.504 152.531 43.648H144.659C144.739 44.88 145.123 45.864 145.811 46.6C146.515 47.336 147.427 47.704 148.547 47.704C149.107 47.704 149.619 47.624 150.083 47.464C150.563 47.288 151.019 47.064 151.451 46.792L152.147 48.088C151.651 48.408 151.083 48.688 150.443 48.928C149.819 49.168 149.107 49.288 148.307 49.288ZM144.635 42.232H150.875C150.875 41.048 150.619 40.152 150.107 39.544C149.611 38.92 148.907 38.608 147.995 38.608C147.179 38.608 146.443 38.928 145.787 39.568C145.147 40.192 144.763 41.08 144.635 42.232ZM154.765 49V37.336H156.397L156.565 39.448H156.637C157.037 38.712 157.525 38.128 158.101 37.696C158.677 37.264 159.293 37.048 159.949 37.048C160.413 37.048 160.829 37.128 161.197 37.288L160.813 39.016C160.621 38.952 160.445 38.904 160.285 38.872C160.125 38.84 159.925 38.824 159.685 38.824C159.189 38.824 158.669 39.024 158.125 39.424C157.597 39.824 157.133 40.52 156.733 41.512V49H154.765ZM165.32 49.288C164.488 49.288 163.696 49.136 162.944 48.832C162.192 48.512 161.536 48.128 160.976 47.68L161.96 46.36C162.472 46.76 163 47.096 163.544 47.368C164.088 47.624 164.704 47.752 165.392 47.752C166.16 47.752 166.736 47.576 167.12 47.224C167.504 46.856 167.696 46.424 167.696 45.928C167.696 45.528 167.56 45.192 167.288 44.92C167.032 44.648 166.696 44.424 166.28 44.248C165.88 44.056 165.464 43.88 165.032 43.72C164.488 43.512 163.952 43.28 163.424 43.024C162.896 42.752 162.464 42.408 162.128 41.992C161.792 41.56 161.624 41.016 161.624 40.36C161.624 39.416 161.976 38.632 162.68 38.008C163.4 37.368 164.392 37.048 165.656 37.048C166.376 37.048 167.048 37.176 167.672 37.432C168.296 37.688 168.832 38 169.28 38.368L168.32 39.616C167.92 39.312 167.504 39.064 167.072 38.872C166.64 38.68 166.168 38.584 165.656 38.584C164.92 38.584 164.376 38.752 164.024 39.088C163.688 39.424 163.52 39.816 163.52 40.264C163.52 40.632 163.64 40.936 163.88 41.176C164.12 41.4 164.432 41.6 164.816 41.776C165.2 41.936 165.608 42.104 166.04 42.28C166.6 42.488 167.152 42.728 167.696 43C168.24 43.256 168.688 43.608 169.04 44.056C169.408 44.488 169.592 45.072 169.592 45.808C169.592 46.432 169.424 47.008 169.088 47.536C168.768 48.064 168.288 48.488 167.648 48.808C167.024 49.128 166.248 49.288 165.32 49.288Z" fill="white"/>
<line x1="76.5" y1="5" x2="76.5" y2="49" stroke="white"/>
</g>
<defs>
<clipPath id="clip0_1_318">
<rect width="240" height="52" fill="white"/>
</clipPath>
</defs>
</svg>
