<svg width="120" height="120" viewBox="0 0 120 120" fill="none" xmlns="http://www.w3.org/2000/svg">
<g clip-path="url(#clip0_1_219)">
<path d="M60 0C26.8629 0 0 26.8628 0 60C0 93.1373 26.863 120 60 120C93.1373 120 120 93.1372 120 60C120 26.8628 93.1373 0 60 0ZM12.8925 60.6255L59.3744 107.108C33.8505 106.775 13.2251 86.1494 12.8925 60.6255ZM70.5451 105.93L14.0703 49.4549C18.8591 28.5109 37.6042 12.8846 60 12.8846C75.6551 12.8846 89.5242 20.5219 98.0919 32.2718L91.5685 38.0277C84.6186 28.0611 73.0719 21.5384 60 21.5384C43.357 21.5384 29.1842 32.1099 23.8271 46.9039L73.0962 96.173C85.0612 91.8402 94.2633 81.74 97.3453 69.2308H76.9231V60.0001H98.4616V59.9999H107.115V60C107.115 82.3958 91.4892 101.141 70.5451 105.93Z" fill="white"/>
</g>
<defs>
<clipPath id="clip0_1_219">
<rect width="120" height="120" fill="white"/>
</clipPath>
</defs>
</svg>
