<svg width="80" height="80" viewBox="0 0 80 80" fill="none" xmlns="http://www.w3.org/2000/svg">
<path d="M11.6667 45V75C11.6667 76.841 13.1591 78.3333 15 78.3333H30C30.9205 78.3333 31.6667 77.5871 31.6667 76.6667V63.3333C31.6667 58.731 35.3976 55 40 55C44.6024 55 48.3333 58.731 48.3333 63.3333V76.6667C48.3333 77.5871 49.0795 78.3333 50 78.3333H65C66.841 78.3333 68.3333 76.841 68.3333 75V46.6667" stroke="white" stroke-width="2" stroke-linecap="round" stroke-linejoin="round"/>
<path d="M1.66667 43.3333L40 5L78.3333 43.3333" stroke="white" stroke-width="2" stroke-linecap="round" stroke-linejoin="round"/>
<path d="M53.3333 8.33325H63.3333C64.2538 8.33325 65 9.07944 65 9.99992V19.9999" stroke="white" stroke-width="2" stroke-linecap="round" stroke-linejoin="round"/>
</svg>
