<svg width="80" height="80" viewBox="0 0 80 80" fill="none" xmlns="http://www.w3.org/2000/svg">
<path d="M15 12.5C15.4602 12.5 15.8333 12.8731 15.8333 13.3333C15.8333 13.7936 15.4602 14.1667 15 14.1667C14.5398 14.1667 14.1667 13.7936 14.1667 13.3333C14.1667 12.8731 14.5398 12.5 15 12.5" stroke="white" stroke-width="2" stroke-linecap="round" stroke-linejoin="round"/>
<path d="M21.6667 12.5C22.1269 12.5 22.5 12.8731 22.5 13.3333C22.5 13.7936 22.1269 14.1667 21.6667 14.1667C21.2064 14.1667 20.8333 13.7936 20.8333 13.3333C20.8333 12.8731 21.2064 12.5 21.6667 12.5" stroke="white" stroke-width="2" stroke-linecap="round" stroke-linejoin="round"/>
<path d="M28.3333 12.5C28.7936 12.5 29.1667 12.8731 29.1667 13.3333C29.1667 13.7936 28.7936 14.1667 28.3333 14.1667C27.8731 14.1667 27.5 13.7936 27.5 13.3333C27.5 12.8731 27.8731 12.5 28.3333 12.5" stroke="white" stroke-width="2" stroke-linecap="round" stroke-linejoin="round"/>
<path d="M35 12.5C35.4602 12.5 35.8333 12.8731 35.8333 13.3333C35.8333 13.7936 35.4602 14.1667 35 14.1667C34.5398 14.1667 34.1667 13.7936 34.1667 13.3333C34.1667 12.8731 34.5398 12.5 35 12.5" stroke="white" stroke-width="2" stroke-linecap="round" stroke-linejoin="round"/>
<path d="M51.6667 42.5C52.1269 42.5 52.5 42.8731 52.5 43.3333C52.5 43.7936 52.1269 44.1667 51.6667 44.1667C51.2064 44.1667 50.8333 43.7936 50.8333 43.3333C50.8333 42.8731 51.2064 42.5 51.6667 42.5" stroke="white" stroke-width="2" stroke-linecap="round" stroke-linejoin="round"/>
<path d="M58.3333 42.5C58.7936 42.5 59.1667 42.8731 59.1667 43.3333C59.1667 43.7936 58.7936 44.1667 58.3333 44.1667C57.8731 44.1667 57.5 43.7936 57.5 43.3333C57.5 42.8731 57.8731 42.5 58.3333 42.5" stroke="white" stroke-width="2" stroke-linecap="round" stroke-linejoin="round"/>
<path d="M65 42.5C65.4602 42.5 65.8333 42.8731 65.8333 43.3333C65.8333 43.7936 65.4602 44.1667 65 44.1667C64.5398 44.1667 64.1667 43.7936 64.1667 43.3333C64.1667 42.8731 64.5398 42.5 65 42.5" stroke="white" stroke-width="2" stroke-linecap="round" stroke-linejoin="round"/>
<path d="M61.6667 51.6666V71.6666C61.6667 75.3485 58.6819 78.3333 55 78.3333H31.6667C27.9848 78.3333 25 75.3485 25 71.6666V28.3333" stroke="white" stroke-width="2" stroke-linecap="round" stroke-linejoin="round"/>
<path d="M45 11.6666H55C58.6819 11.6666 61.6667 14.6514 61.6667 18.3333V31.6666" stroke="white" stroke-width="2" stroke-linecap="round" stroke-linejoin="round"/>
<path d="M61.6667 65H25" stroke="white" stroke-width="2" stroke-linecap="round" stroke-linejoin="round"/>
<path d="M43.3333 70.8333V70.8333C43.7936 70.8333 44.1667 71.2063 44.1667 71.6666V71.6666C44.1667 72.1268 43.7936 72.4999 43.3333 72.4999V72.4999C42.8731 72.4999 42.5 72.1268 42.5 71.6666V71.6666C42.5 71.2063 42.8731 70.8333 43.3333 70.8333" stroke="white" stroke-width="2" stroke-linecap="round" stroke-linejoin="round"/>
<path fill-rule="evenodd" clip-rule="evenodd" d="M11.6667 1.66663C7.98477 1.66663 5 4.65139 5 8.33329V18.3333C5 22.0152 7.98477 25 11.6667 25H21.6667L31.6667 35V25H38.3333C42.0152 25 45 22.0152 45 18.3333V8.33329C45 4.65139 42.0152 1.66663 38.3333 1.66663H11.6667Z" stroke="white" stroke-width="2" stroke-linecap="round" stroke-linejoin="round"/>
<path fill-rule="evenodd" clip-rule="evenodd" d="M75 38.3333V45C75 48.6819 72.0152 51.6666 68.3333 51.6666H61.6667L51.6667 58.3333V51.6666H48.3333C44.6514 51.6666 41.6667 48.6819 41.6667 45V38.3333C41.6667 34.6514 44.6514 31.6666 48.3333 31.6666H68.3333C72.0152 31.6666 75 34.6514 75 38.3333Z" stroke="white" stroke-width="2" stroke-linecap="round" stroke-linejoin="round"/>
</svg>
