<svg width="36" height="36" viewBox="0 0 36 36" fill="none" xmlns="http://www.w3.org/2000/svg">
<path d="M9.75 33.75V34.75C10.3023 34.75 10.75 34.3023 10.75 33.75H9.75ZM2.25 33.75H1.25C1.25 34.3023 1.69772 34.75 2.25 34.75V33.75ZM2.25 14.25V13.25C1.69772 13.25 1.25 13.6977 1.25 14.25H2.25ZM9.75 14.25H10.75C10.75 13.6977 10.3023 13.25 9.75 13.25V14.25ZM20.25 33.7501V34.7501C20.8023 34.7501 21.25 34.3024 21.25 33.7501H20.25ZM12.75 33.7501H11.75C11.75 34.3024 12.1977 34.7501 12.75 34.7501V33.7501ZM12.75 14.2501V13.2501C12.1977 13.2501 11.75 13.6978 11.75 14.2501H12.75ZM20.25 14.2501H21.25C21.25 13.6978 20.8023 13.2501 20.25 13.2501V14.2501ZM20.25 16.4776H19.25C19.25 16.8671 19.4762 17.2212 19.8296 17.385C20.1831 17.5487 20.5994 17.4923 20.8966 17.2405L20.25 16.4776ZM26.235 14.2351L26.235 13.235L26.2211 13.2352L26.235 14.2351ZM33.75 33.7501V34.7501C34.3023 34.7501 34.75 34.3024 34.75 33.7501H33.75ZM26.25 33.7501H25.25C25.25 34.3024 25.6977 34.7501 26.25 34.7501V33.7501ZM9.75 32.75H2.25V34.75H9.75V32.75ZM3.25 33.75V14.25H1.25V33.75H3.25ZM2.25 15.25H9.75V13.25H2.25V15.25ZM8.75 14.25V33.75H10.75V14.25H8.75ZM23.25 19.2501C21.0409 19.2501 19.25 21.041 19.25 23.2501H21.25C21.25 22.1455 22.1454 21.2501 23.25 21.2501V19.2501ZM19.25 23.2501V33.7501H21.25V23.2501H19.25ZM20.25 32.7501H12.75V34.7501H20.25V32.7501ZM13.75 33.7501V14.2501H11.75V33.7501H13.75ZM12.75 15.2501H20.25V13.2501H12.75V15.2501ZM19.25 14.2501V16.4776H21.25V14.2501H19.25ZM20.8966 17.2405C22.394 15.9713 24.2862 15.2624 26.2489 15.235L26.2211 13.2352C23.7943 13.269 21.4549 14.1456 19.6034 15.7148L20.8966 17.2405ZM26.235 15.2351C28.1901 15.2351 29.7734 15.9504 30.8873 17.3006C32.0192 18.6727 32.75 20.8044 32.75 23.7676H34.75C34.75 20.4983 33.9448 17.8638 32.43 16.0278C30.8971 14.1698 28.7229 13.2351 26.235 13.2351V15.2351ZM32.75 23.7676V33.7501H34.75V23.7676H32.75ZM33.75 32.7501H26.25V34.7501H33.75V32.7501ZM27.25 33.7501V23.2501H25.25V33.7501H27.25ZM27.25 23.2501C27.25 21.041 25.4591 19.2501 23.25 19.2501V21.2501C24.3546 21.2501 25.25 22.1455 25.25 23.2501H27.25ZM8.75 7.5C8.75 9.01878 7.51878 10.25 6 10.25V12.25C8.62335 12.25 10.75 10.1234 10.75 7.5H8.75ZM6 10.25C4.48122 10.25 3.25 9.01878 3.25 7.5H1.25C1.25 10.1234 3.37665 12.25 6 12.25V10.25ZM3.25 7.5C3.25 5.98122 4.48122 4.75 6 4.75V2.75C3.37665 2.75 1.25 4.87665 1.25 7.5H3.25ZM6 4.75C6.72935 4.75 7.42882 5.03973 7.94454 5.55546L9.35876 4.14124C8.46796 3.25044 7.25978 2.75 6 2.75V4.75ZM7.94454 5.55546C8.46027 6.07118 8.75 6.77065 8.75 7.5H10.75C10.75 6.24022 10.2496 5.03204 9.35876 4.14124L7.94454 5.55546Z" fill="white"/>
</svg>
