<svg width="136" height="121" viewBox="0 0 136 121" fill="none" xmlns="http://www.w3.org/2000/svg">
<path d="M135.029 60.3709C135.029 51.4444 123.827 42.9848 106.652 37.7387C110.616 20.2702 108.854 6.37228 101.093 1.92275C99.3037 0.879035 97.2119 0.384644 94.9275 0.384644V6.50962C96.1936 6.50962 97.2119 6.75681 98.0652 7.22374C101.808 9.3661 103.432 17.5236 102.166 28.0157C101.863 30.5975 101.368 33.3167 100.762 36.0908C95.3679 34.7724 89.4779 33.7561 83.2852 33.0969C79.5696 28.0157 75.7163 23.4014 71.8355 19.3638C80.8081 11.0415 89.2302 6.48215 94.955 6.48215V0.357178C87.3862 0.357178 77.4778 5.74056 67.4594 15.0791C57.4409 5.79549 47.5326 0.467043 39.9637 0.467043V6.59201C45.661 6.59201 54.1106 11.1239 63.0832 19.3913C59.2299 23.4288 55.3767 28.0157 51.7161 33.0969C45.4958 33.7561 39.6059 34.7724 34.2113 36.1182C33.5783 33.3716 33.1104 30.7074 32.7801 28.153C31.4865 17.6609 33.0829 9.50344 36.7985 7.3336C37.6242 6.83921 38.6976 6.61948 39.9637 6.61948V0.494509C37.6517 0.494509 35.56 0.988901 33.7434 2.03262C26.0094 6.48215 24.2755 20.3526 28.2663 37.7662C11.1469 43.0397 0 51.4718 0 60.3709C0 69.2974 11.2019 77.757 28.3764 83.0031C24.4131 100.472 26.1746 114.37 33.9361 118.819C35.7251 119.863 37.8169 120.357 40.1288 120.357C47.6977 120.357 57.6061 114.974 67.6245 105.635C77.6429 114.919 87.5513 120.247 95.1202 120.247C97.4321 120.247 99.5239 119.753 101.34 118.709C109.074 114.26 110.808 100.389 106.818 82.9756C123.882 77.7296 135.029 69.27 135.029 60.3709ZM99.1936 42.0509C98.1752 45.5941 96.9092 49.2471 95.478 52.9001C94.3495 50.7028 93.166 48.5055 91.8724 46.3082C90.6064 44.1109 89.2577 41.9685 87.9091 39.8811C91.8174 40.4579 95.5881 41.172 99.1936 42.0509ZM86.588 71.3025C84.4412 75.0104 82.2393 78.5261 79.9549 81.7946C75.8539 82.1516 71.6979 82.3439 67.5144 82.3439C63.3584 82.3439 59.2024 82.1516 55.129 81.822C52.8445 78.5536 50.6152 75.0653 48.4684 71.3849C46.3766 67.7868 44.4775 64.1338 42.7435 60.4533C44.45 56.7728 46.3766 53.0924 48.4408 49.4943C50.5876 45.7863 52.7895 42.2707 55.0739 39.0022C59.1749 38.6451 63.3309 38.4528 67.5144 38.4528C71.6704 38.4528 75.8264 38.6451 79.8998 38.9747C82.1843 42.2432 84.4137 45.7314 86.5605 49.4119C88.6522 53.01 90.5513 56.663 92.2853 60.3434C90.5513 64.0239 88.6522 67.7044 86.588 71.3025ZM95.478 67.7319C96.9642 71.4123 98.2303 75.0928 99.2762 78.6634C95.6706 79.5423 91.8724 80.2839 87.9366 80.8607C89.2853 78.7458 90.6339 76.576 91.9 74.3512C93.166 72.1539 94.3495 69.9292 95.478 67.7319ZM67.5695 97.0383C65.0098 94.4016 62.4501 91.4627 59.918 88.2491C62.3951 88.359 64.9272 88.4414 67.4869 88.4414C70.0741 88.4414 72.6337 88.3865 75.1383 88.2491C72.6612 91.4627 70.1016 94.4016 67.5695 97.0383ZM47.0922 80.8607C43.1839 80.2839 39.4132 79.5698 35.8077 78.6909C36.826 75.1477 38.0921 71.4947 39.5233 67.8417C40.6518 70.039 41.8353 72.2363 43.1289 74.4336C44.4224 76.6309 45.7436 78.7733 47.0922 80.8607ZM67.4318 23.7035C69.9915 26.3402 72.5511 29.2791 75.0833 32.4927C72.6062 32.3828 70.0741 32.3004 67.5144 32.3004C64.9272 32.3004 62.3676 32.3553 59.863 32.4927C62.34 29.2791 64.8997 26.3402 67.4318 23.7035ZM47.0647 39.8811C45.716 41.996 44.3674 44.1658 43.1013 46.3906C41.8353 48.5879 40.6518 50.7852 39.5233 52.9825C38.0371 49.302 36.771 45.6215 35.7251 42.0509C39.3307 41.1995 43.1289 40.4579 47.0647 39.8811ZM22.1562 74.2688C12.413 70.1214 6.11015 64.6831 6.11015 60.3709C6.11015 56.0587 12.413 50.5929 22.1562 46.473C24.5232 45.4567 27.1103 44.5504 29.7801 43.6989C31.3489 49.0823 33.4132 54.6854 35.9728 60.4258C33.4407 66.1388 31.404 71.7145 29.8627 77.0704C27.1379 76.2189 24.5507 75.2851 22.1562 74.2688ZM36.9637 113.518C33.2205 111.376 31.5966 103.218 32.8627 92.7261C33.1655 90.1443 33.6609 87.4251 34.2664 84.6511C39.6609 85.9694 45.5509 86.9857 51.7436 87.6449C55.4592 92.7261 59.3125 97.3405 63.1933 101.378C54.2207 109.7 45.7986 114.26 40.0738 114.26C38.8352 114.232 37.7894 113.985 36.9637 113.518ZM102.249 92.5888C103.542 103.081 101.946 111.238 98.2303 113.408C97.4046 113.903 96.3312 114.122 95.0651 114.122C89.3678 114.122 80.9182 109.59 71.9456 101.323C75.7989 97.2855 79.6521 92.6987 83.3127 87.6174C89.533 86.9582 95.4229 85.942 100.817 84.5961C101.451 87.3702 101.946 90.0344 102.249 92.5888ZM112.845 74.2688C110.478 75.2851 107.891 76.1915 105.221 77.0429C103.652 71.6595 101.588 66.0564 99.0285 60.316C101.561 54.603 103.597 49.0273 105.139 43.6714C107.863 44.5229 110.451 45.4567 112.873 46.473C122.616 50.6204 128.919 56.0587 128.919 60.3709C128.891 64.6831 122.588 70.1489 112.845 74.2688Z" fill="white"/>
<path d="M67.4869 72.923C74.4336 72.923 80.065 67.3032 80.065 60.3709C80.065 53.4386 74.4336 47.8188 67.4869 47.8188C60.5402 47.8188 54.9088 53.4386 54.9088 60.3709C54.9088 67.3032 60.5402 72.923 67.4869 72.923Z" fill="white"/>
</svg>
