<svg width="80" height="80" viewBox="0 0 80 80" fill="none" xmlns="http://www.w3.org/2000/svg">
<path d="M16.51 52.5505L77.6633 2.05713" stroke="white" stroke-width="2" stroke-linecap="round" stroke-linejoin="round"/>
<path d="M30.7701 58.6671L55.7334 69.3638C56.6803 69.7695 57.7564 69.7456 58.6843 69.2983C59.6122 68.8509 60.3011 68.0239 60.5734 67.0305L78.2667 3.93379C78.4611 3.24447 78.2242 2.50576 77.6652 2.05801C77.1063 1.61025 76.3337 1.54033 75.7034 1.88045L3.5434 40.6938C2.33747 41.3439 1.60994 42.6268 1.67102 43.9954C1.7321 45.3641 2.57102 46.577 3.83007 47.1171L16.4967 52.5505" stroke="white" stroke-width="2" stroke-linecap="round" stroke-linejoin="round"/>
<path d="M16.51 52.5503L25.1767 76.5503C25.5214 77.5076 26.3779 78.1875 27.3884 78.3061C28.3989 78.4248 29.3896 77.9617 29.9467 77.1103L39.5767 62.4436" stroke="white" stroke-width="2" stroke-linecap="round" stroke-linejoin="round"/>
<path d="M77.6635 2.05713L30.7701 58.6638L27.7168 78.3338" stroke="white" stroke-width="2" stroke-linecap="round" stroke-linejoin="round"/>
</svg>
