<svg width="80" height="80" viewBox="0 0 80 80" fill="none" xmlns="http://www.w3.org/2000/svg">
<path fill-rule="evenodd" clip-rule="evenodd" d="M43.0566 1.66664C57.1184 1.65252 69.5913 10.6914 73.9557 24.0587C78.3201 37.426 73.5842 52.0836 62.2233 60.37V78.3333H28.89V68.3333H25.18C19.6571 68.3333 15.18 63.8562 15.18 58.3333V48.3333H3.88998C11.2033 26.3866 15.3933 1.66664 43.0566 1.66664Z" stroke="white" stroke-width="2" stroke-linecap="round" stroke-linejoin="round"/>
<path fill-rule="evenodd" clip-rule="evenodd" d="M43.89 34.5833C46.1912 34.5833 48.0567 32.7179 48.0567 30.4167C48.0567 28.1155 46.1912 26.25 43.89 26.25C41.5888 26.25 39.7233 28.1155 39.7233 30.4167C39.7233 32.7179 41.5888 34.5833 43.89 34.5833Z" stroke="white" stroke-width="2" stroke-linecap="round" stroke-linejoin="round"/>
<path fill-rule="evenodd" clip-rule="evenodd" d="M47.4266 14.2964L48.6666 18.3331C49.0845 19.7245 50.5115 20.5518 51.9266 20.2231L56 19.2764C57.5912 18.9184 59.23 19.6386 60.0423 21.0529C60.8547 22.4672 60.651 24.2457 59.54 25.4397L56.6766 28.5231C55.6906 29.5927 55.6906 31.2401 56.6766 32.3097L59.54 35.3931C60.651 36.5871 60.8547 38.3656 60.0423 39.7799C59.23 41.1942 57.5912 41.9144 56 41.5564L51.91 40.6097C50.4949 40.281 49.0678 41.1083 48.65 42.4997L47.42 46.5364C46.9482 48.096 45.511 49.1628 43.8816 49.1628C42.2523 49.1628 40.8151 48.096 40.3433 46.5364L39.1133 42.4997C38.6954 41.1083 37.2684 40.281 35.8533 40.6097L31.7633 41.5564C30.1725 41.9134 28.5347 41.1919 27.7244 39.7771C26.9141 38.3623 27.1205 36.5846 28.2333 35.3931L31.0933 32.3097C32.0826 31.2414 32.0826 29.5915 31.0933 28.5231L28.2333 25.4397C27.1182 24.2475 26.9116 22.4671 27.7241 21.0512C28.5366 19.6353 30.1779 18.9153 31.77 19.2764L35.86 20.2231C37.2751 20.5518 38.7021 19.7245 39.12 18.3331L40.35 14.2964C40.8217 12.7368 42.2589 11.67 43.8883 11.67C45.5177 11.67 46.9549 12.7368 47.4266 14.2964Z" stroke="white" stroke-width="2" stroke-linecap="round" stroke-linejoin="round"/>
</svg>
