<svg width="38" height="38" viewBox="0 0 38 38" fill="none" xmlns="http://www.w3.org/2000/svg">
<path fill-rule="evenodd" clip-rule="evenodd" d="M19.75 36.25H3.25C2.42157 36.25 1.75 35.5784 1.75 34.75V3.25C1.75 2.42157 2.42157 1.75 3.25 1.75H34.75C35.5784 1.75 36.25 2.42157 36.25 3.25V34.75C36.25 35.5784 35.5784 36.25 34.75 36.25H25.75V22.75H29.5885C29.969 22.7529 30.2913 22.4705 30.3385 22.093L30.901 17.593C30.9278 17.3785 30.8608 17.1629 30.7171 17.0015C30.5735 16.84 30.3671 16.7483 30.151 16.75H25.75V14.7775C25.7517 13.3817 26.8832 12.2508 28.279 12.25H31C31.4142 12.25 31.75 11.9142 31.75 11.5V7C31.75 6.58579 31.4142 6.25 31 6.25H28.279C23.5712 6.25496 19.7558 10.0697 19.75 14.7775V16.75H16C15.5858 16.75 15.25 17.0858 15.25 17.5V22C15.25 22.4142 15.5858 22.75 16 22.75H19.75V36.25Z" stroke="white" stroke-width="2" stroke-linecap="round" stroke-linejoin="round"/>
</svg>
