<svg width="36" height="36" viewBox="0 0 36 36" fill="none" xmlns="http://www.w3.org/2000/svg">
<path fill-rule="evenodd" clip-rule="evenodd" d="M34.5 9.94199L31.5 9.19199L33 6.19199L29.304 7.24199C27.3428 5.41231 24.4813 4.92412 22.0243 6.00002C19.5674 7.07592 17.9855 9.50983 18 12.192V13.692C12.6915 14.787 8.049 11.892 3.75 6.94199C3 10.942 3.75 13.942 6 15.942L1.5 15.192C2.1075 18.2955 3.543 20.742 7.5 21.192L3.75 22.692C5.25 25.692 7.599 26.157 11.25 26.442C8.41038 28.4709 4.98904 29.5237 1.5 29.442C20.6325 37.9455 31.5 25.446 31.5 14.442V12.45L34.5 9.94199Z" stroke="white" stroke-width="2" stroke-linecap="round" stroke-linejoin="round"/>
</svg>
