<svg width="120" height="120" viewBox="0 0 120 120" fill="none" xmlns="http://www.w3.org/2000/svg">
<g clip-path="url(#clip0_1_216)">
<path fill-rule="evenodd" clip-rule="evenodd" d="M59.9964 8.40541C73.4545 8.40541 85.7083 13.5626 94.8937 22.0063C90.3916 21.8855 85.8987 24.5617 85.7129 30.69C85.3342 43.079 100.527 45.718 92.3407 70.6377L85.5689 91.2504L67.1259 36.9228C66.8402 36.0819 67.1724 35.6033 68.2062 35.6033H73.4203C73.6913 35.6033 73.9128 35.372 73.9128 35.0886V32.0003C73.9128 31.717 73.6908 31.4739 73.4203 31.4857C63.5461 31.9174 53.7299 31.9204 43.973 31.4857C43.7012 31.474 43.4805 31.718 43.4805 32.0014V35.0897C43.4805 35.3727 43.7021 35.6044 43.973 35.6044H49.2157C50.3819 35.6044 50.7084 35.993 50.9834 36.7448L58.5613 57.469L47.1619 91.89L28.4239 36.6983C28.1916 36.006 28.4727 35.6041 29.1394 35.6041H35.1132C35.3841 35.6041 35.6057 35.3727 35.6057 35.0894V32.0011C35.6057 31.7178 35.3833 31.4722 35.1132 31.4864C28.8456 31.8194 22.554 31.8863 16.6933 31.9465C25.8901 17.7794 41.8476 8.40439 59.9932 8.40439L59.9931 8.40424L59.9964 8.40541ZM105.371 35.4298C109.335 42.7338 111.586 51.1022 111.586 59.9941C111.586 79.5091 100.743 96.4943 84.757 105.262L100.847 59.6897C103.339 52.6369 105.653 43.1053 105.37 35.4298H105.37H105.371ZM77.2685 108.616C71.8674 110.537 66.055 111.585 59.9964 111.585C54.7764 111.585 49.74 110.807 44.9916 109.366L60.885 63.8202L77.2683 108.618V108.618L77.2685 108.616ZM37.9202 106.632C20.4736 98.3581 8.40544 80.5835 8.40544 59.9964C8.40544 52.3646 10.0656 45.1198 13.0411 38.6017L37.9213 106.633L37.9214 106.633L37.9202 106.632ZM59.9948 3.56411C91.1543 3.56411 116.425 28.8346 116.425 59.9941C116.425 91.1535 91.1543 116.424 59.9948 116.424C28.8353 116.424 3.56483 91.1535 3.56483 59.9941C3.56483 28.8346 28.8353 3.56411 59.9948 3.56411V3.56411ZM59.9948 -0.00274658C93.1242 -0.00274658 119.993 26.866 119.993 59.9954C119.993 93.1249 93.1242 119.994 59.9948 119.994C26.8653 119.994 -0.00341797 93.1249 -0.00341797 59.9954C-0.00341797 26.866 26.8653 -0.00274658 59.9948 -0.00274658V-0.00274658Z" fill="white"/>
</g>
<defs>
<clipPath id="clip0_1_216">
<rect width="120" height="120" fill="white"/>
</clipPath>
</defs>
</svg>
